{"title":"I.Love.Lindsey.XXX.DVDRip.XviD-DFA","uid":7755385,"size":729702400,"categoryP":"porn","categoryS":"movies","magnet":"?xt=urn:btih:c2a2e8bf17146884e4d7167441a0f229d5b9de20&amp;dn=I.Love.Lindsey.XXX.DVDRip.XviD-DFA&amp;tr=udp%3A%2F%2Ftracker.openbittorrent.com%3A80&amp;tr=udp%3A%2F%2Fopen.demonii.com%3A1337&amp;tr=udp%3A%2F%2Ftracker.coppersurfer.tk%3A6969&amp;tr=udp%3A%2F%2Fexodus.desync.com%3A6969","seeders":0,"leechers":0,"uploader":"R0thschild","files":2,"time":1351038750,"description":"Gallery: \n &lt;a href=&quot;\nhttp://imagedomino.com/?g=242577&quot; rel=&quot;nofollow&quot; target=&quot;_NEW&quot;&gt;\nhttp://imagedomino.com/?g=242577&lt;/a&gt;\n\nVideo\nFormat                           : MPEG-4 Visual\nFormat profile                   : Simple@L3\nFormat settings, BVOP            : Yes\nFormat settings, QPel            : No\nFormat settings, GMC             : No warppoints\nFormat settings, Matrix          : Default\nMuxing mode                      : Packed bitstream\nCodec ID                         : XVID\nCodec ID/Hint                    : XviD\nDuration                         : 1h 17mn\nBit rate                         : 1 087 Kbps\nWidth                            : 512 pixels\nHeight                           : 384 pixels\nDisplay aspect ratio             : 4/3\nFrame rate                       : 29.970 fps\nResolution                       : 24 bits\nColorimetry                      : 4:2:0\nScan type                        : Progressive\nBits/(Pixel*Frame)               : 0.185\nStream size                      : 605 MiB (87%)\nWriting library                  : XviD 1.0.3 (UTC 2004-12-20)\n\nAudio\nFormat                           : MPEG Audio\nFormat version                   : Version 1\nFormat profile                   : Layer 3\nCodec ID                         : 55\nCodec ID/Hint                    : MP3\nDuration                         : 1h 17mn\nBit rate mode                    : Variable\nBit rate                         : 148 Kbps\nNominal bit rate                 : 160 Kbps\nChannel(s)                       : 2 channels\nSampling rate                    : 48.0 KHz\nResolution                       : 16 bits\nStream size                      : 83.0 MiB (12%)\nAlignment                        : Aligned on interleaves\nInterleave, duration             : 24 ms (0.72 video frame)\nInterleave, preload duration     : 119 ms\nWriting library                  : LAME3.90.\nEncoding settings                : ABR","torrent":{"xt":"urn:btih:c2a2e8bf17146884e4d7167441a0f229d5b9de20","amp;dn":"I.Love.Lindsey.XXX.DVDRip.XviD-DFA","amp;tr":["udp%3A%2F%2Ftracker.openbittorrent.com%3A80","udp%3A%2F%2Fopen.demonii.com%3A1337","udp%3A%2F%2Ftracker.coppersurfer.tk%3A6969","udp%3A%2F%2Fexodus.desync.com%3A6969"],"infoHash":"c2a2e8bf17146884e4d7167441a0f229d5b9de20","infoHashBuffer":{"type":"Buffer","data":[194,162,232,191,23,20,104,132,228,215,22,116,65,160,242,41,213,185,222,32]},"announce":[],"urlList":[]}}